<?xml version="1.0" encoding="UTF-8" standalone="no"?>
<!-- Created with Inkscape (http://www.inkscape.org/) -->

<svg
   width="53.975384mm"
   height="65.860924mm"
   viewBox="0 0 53.975384 65.860924"
   version="1.1"
   id="svg1"
   xml:space="preserve"
   inkscape:version="1.4.3 (0d15f75, 2025-12-25)"
   sodipodi:docname="9dejulio2.svg"
   xmlns:inkscape="http://www.inkscape.org/namespaces/inkscape"
   xmlns:sodipodi="http://sodipodi.sourceforge.net/DTD/sodipodi-0.dtd"
   xmlns="http://www.w3.org/2000/svg"
   xmlns:svg="http://www.w3.org/2000/svg"><sodipodi:namedview
     id="namedview1"
     pagecolor="#ffffff"
     bordercolor="#000000"
     borderopacity="0.25"
     inkscape:showpageshadow="2"
     inkscape:pageopacity="0.0"
     inkscape:pagecheckerboard="0"
     inkscape:deskcolor="#d1d1d1"
     inkscape:document-units="mm"
     inkscape:zoom="1.4142136"
     inkscape:cx="104.6518"
     inkscape:cy="102.88404"
     inkscape:window-width="1440"
     inkscape:window-height="829"
     inkscape:window-x="1432"
     inkscape:window-y="-8"
     inkscape:window-maximized="1"
     inkscape:current-layer="layer1"><inkscape:page
       x="0"
       y="0"
       width="53.975384"
       height="65.860924"
       id="page2"
       margin="0"
       bleed="0" /></sodipodi:namedview><defs
     id="defs1"><clipPath
       clipPathUnits="userSpaceOnUse"
       id="clipPath29"><rect
         style="fill:#ffffff;stroke-width:0.264583"
         id="rect29"
         width="20.392664"
         height="77.828888"
         x="-124.89529"
         y="58.55875"
         transform="scale(-1,1)" /></clipPath></defs><g
     inkscape:label="Capa 1"
     inkscape:groupmode="layer"
     id="layer1"
     transform="translate(-78.012292,-66.6178)"><g
       id="g158"><g
         id="g31"
         transform="translate(9.2776289,-8.6631568)"><g
           id="g43"
           transform="translate(37.570833,22.754167)"><g
             id="g42"
             style="fill:#000000"><g
               id="g23"
               transform="matrix(1.0194253,0,0,1,-16.626094,-8.7931674)"
               style="fill:#000000"><g
                 id="g15"
                 transform="matrix(0.9725091,0,0,1,-10.525882,-6.3611102)"
                 style="fill:#000000"><g
                   id="g11"
                   style="fill:#000000"><path
                     style="fill:#000000;stroke-width:0.264583"
                     d="m 86.236886,67.685275 c -7.55545,9.971753 -17.577551,8.689152 -27.208961,8.281146 2.30907,2.175776 2.90402,4.219698 2.68717,6.201173 l -0.0845,37.827156 c 0.0019,0.005 0.0039,0.01 0.0058,0.015 4.828011,12.44268 16.285812,3.96362 24.613439,13.53224 -0.0043,-21.23846 -0.0086,-43.763864 -0.01295,-65.856715 z"
                     id="path6"
                     sodipodi:nodetypes="ccccscc" /><path
                     style="fill:#000000;stroke-width:0.264583"
                     d="m 86.236886,67.685275 c -7.55545,9.971753 -17.577551,8.689152 -27.208961,8.281146 2.30907,2.175776 2.90402,4.219698 2.68717,6.201173 l -0.0845,37.827156 c 0.0019,0.005 0.0039,0.01 0.0058,0.015 4.828011,12.44268 16.285812,3.96362 24.613439,13.53224 -0.0043,-21.23846 -0.0086,-43.763864 -0.01295,-65.856715 z"
                     id="path7"
                     sodipodi:nodetypes="ccccscc" /></g><g
                   id="g12"
                   style="fill:#000000"><path
                     style="fill:#000000;stroke-width:0.264583"
                     d="m 86.236886,67.685275 c -7.55545,9.971753 -17.577551,8.689152 -27.208961,8.281146 2.30907,2.175776 2.90402,4.219698 2.68717,6.201173 l -0.0845,37.827156 c 0.0019,0.005 0.0039,0.01 0.0058,0.015 4.828011,12.44268 16.285812,3.96362 24.613439,13.53224 -0.0043,-21.23846 -0.0086,-43.763864 -0.01295,-65.856715 z"
                     id="path11"
                     sodipodi:nodetypes="ccccscc" /><path
                     id="path12"
                     style="fill:#000000;stroke-width:0.264583"
                     d="m 86.239063,67.682457 -5.22e-4,5.17e-4 h -5.21e-4 l -5.21e-4,5.16e-4 h -5.21e-4 v 5.17e-4 l -5.22e-4,5.17e-4 h -5.21e-4 v 5.17e-4 l -5.21e-4,5.17e-4 v 5.16e-4 5.17e-4 l -5.21e-4,5.17e-4 v 5.17e-4 5.16e-4 c -7.55521,9.968773 -17.576475,8.686017 -27.207001,8.278048 2.30907,2.175776 2.903878,4.219697 2.687028,6.201172 l -0.08444,37.827149 c 0.0019,0.005 0.0038,0.01 0.0057,0.015 4.827863,12.4423 16.285712,3.96424 24.613276,13.53147 2.54e-4,2.9e-4 2.66e-4,7.4e-4 5.21e-4,0.001 v -0.002 c 0.0037,-0.004 0.0073,-0.008 0.01095,-0.0124 1.63e-4,-1.9e-4 3.58e-4,-3.3e-4 5.21e-4,-5.2e-4 2.61e-4,-1.1e-4 8.04e-4,1.5e-4 0.001,0 l 5.21e-4,-5.1e-4 c 1.83e-4,-2.1e-4 8.92e-4,-10e-4 0.001,-0.002 1.14e-4,-2.6e-4 4.46e-4,-0.001 5.21e-4,-0.002 l 5.21e-4,-5.2e-4 v -5.2e-4 c 8.326323,-9.53999 19.772659,-1.07955 24.597639,-13.51442 0.002,-0.005 0.004,-0.01 0.006,-0.015 l -0.085,-37.827153 c -0.21685,-1.981475 0.37847,-4.025395 2.68754,-6.201171 -9.63024,0.407956 -19.651347,1.690797 -27.206479,-8.277015 v -5.16e-4 -5.17e-4 l -5.21e-4,-5.17e-4 v -5.17e-4 -5.16e-4 l -5.21e-4,-5.17e-4 v -5.17e-4 l -5.22e-4,-5.17e-4 h -5.21e-4 V 67.6821 l -5.21e-4,-5.16e-4 h -5.21e-4 -5.22e-4 l -5.21e-4,-5.17e-4 h -5.21e-4 -5.21e-4 -5.22e-4 -0.01876 -5.21e-4 -5.21e-4 z" /></g></g><rect
                 style="fill:#000000;stroke-width:0.264583"
                 id="rect23"
                 width="20.392664"
                 height="77.828888"
                 x="73.151672"
                 y="59.120018"
                 clip-path="url(#clipPath29)" /></g><g
               id="g41"
               transform="matrix(-1.0194253,0,0,1,132.92917,-8.794201)"
               style="fill:#000000"><g
                 id="g40"
                 transform="matrix(0.9725091,0,0,1,-10.525882,-6.3611102)"
                 style="fill:#000000"><g
                   id="g37"
                   style="fill:#000000"><path
                     style="fill:#000000;stroke-width:0.264583"
                     d="m 86.236886,67.685275 c -7.55545,9.971753 -17.577551,8.689152 -27.208961,8.281146 2.30907,2.175776 2.90402,4.219698 2.68717,6.201173 l -0.0845,37.827156 c 0.0019,0.005 0.0039,0.01 0.0058,0.015 4.828011,12.44268 16.285812,3.96362 24.613439,13.53224 -0.0043,-21.23846 -0.0086,-43.763864 -0.01295,-65.856715 z"
                     id="path36"
                     sodipodi:nodetypes="ccccscc" /><path
                     style="fill:#000000;stroke-width:0.264583"
                     d="m 86.236886,67.685275 c -7.55545,9.971753 -17.577551,8.689152 -27.208961,8.281146 2.30907,2.175776 2.90402,4.219698 2.68717,6.201173 l -0.0845,37.827156 c 0.0019,0.005 0.0039,0.01 0.0058,0.015 4.828011,12.44268 16.285812,3.96362 24.613439,13.53224 -0.0043,-21.23846 -0.0086,-43.763864 -0.01295,-65.856715 z"
                     id="path37"
                     sodipodi:nodetypes="ccccscc" /></g><g
                   id="g39"
                   style="fill:#000000"><path
                     style="fill:#000000;stroke-width:0.264583"
                     d="m 86.236886,67.685275 c -7.55545,9.971753 -17.577551,8.689152 -27.208961,8.281146 2.30907,2.175776 2.90402,4.219698 2.68717,6.201173 l -0.0845,37.827156 c 0.0019,0.005 0.0039,0.01 0.0058,0.015 4.828011,12.44268 16.285812,3.96362 24.613439,13.53224 -0.0043,-21.23846 -0.0086,-43.763864 -0.01295,-65.856715 z"
                     id="path38"
                     sodipodi:nodetypes="ccccscc" /></g></g><rect
                 style="fill:#000000;stroke-width:0.264583"
                 id="rect40"
                 width="20.392664"
                 height="77.828888"
                 x="73.151672"
                 y="59.120018"
                 clip-path="url(#clipPath29)" /></g></g></g></g><path
         d="M 79.726579,107.83314 H 78.38214 v -0.90055 q 0,-0.39279 -0.04471,-0.48859 -0.04151,-0.099 -0.188413,-0.099 -0.166059,0 -0.210767,0.11816 -0.04471,0.11815 -0.04471,0.51095 v 2.40147 q 0,0.37682 0.04471,0.49179 0.04471,0.11496 0.201187,0.11496 0.150092,0 0.1948,-0.11496 0.0479,-0.11497 0.0479,-0.5397 v -0.64826 h 1.344439 v 0.20118 q 0,0.80156 -0.114964,1.13687 -0.111771,0.33531 -0.501371,0.58759 -0.386406,0.25228 -0.954839,0.25228 -0.590787,0 -0.974,-0.21396 -0.383213,-0.21396 -0.507757,-0.59078 -0.124544,-0.38002 -0.124544,-1.14006 v -1.5105 q 0,-0.55885 0.03832,-0.83668 0.03832,-0.28103 0.226734,-0.5397 0.191607,-0.25866 0.526918,-0.40556 0.338505,-0.15009 0.776007,-0.15009 0.59398,0 0.980387,0.22992 0.386406,0.22993 0.507757,0.57482 0.121351,0.3417 0.121351,1.06661 z m 1.826649,-2.25457 v 4.13551 h 0.817521 v 1.03468 h -2.16196 v -5.17019 z m 4.199377,0 v 3.45531 q 0,0.58759 -0.03832,0.8271 -0.03832,0.23631 -0.226735,0.4886 -0.188413,0.24908 -0.498177,0.38002 -0.30657,0.12773 -0.724911,0.12773 -0.463049,0 -0.817522,-0.15328 -0.354472,-0.15329 -0.530111,-0.39918 -0.175639,-0.2459 -0.207574,-0.51734 -0.03193,-0.27464 -0.03193,-1.14964 v -3.05932 h 1.344439 v 3.87684 q 0,0.33851 0.03513,0.43431 0.03832,0.0926 0.150092,0.0926 0.127737,0 0.162865,-0.10219 0.03832,-0.10538 0.03832,-0.49179 v -3.80978 z m 0.520531,0 h 1.341246 q 0.635495,0 0.961226,0.099 0.328924,0.099 0.530111,0.40237 0.201187,0.30019 0.201187,0.97081 0,0.45347 -0.143705,0.6323 -0.140511,0.17883 -0.558852,0.27464 0.466242,0.10538 0.632301,0.35128 0.166059,0.2427 0.166059,0.74726 v 0.47902 q 0,0.52372 -0.12135,0.776 -0.118158,0.25229 -0.38002,0.3449 -0.261862,0.0926 -1.072997,0.0926 h -1.555206 z m 1.344439,0.88459 v 1.14964 q 0.08622,-0.003 0.134125,-0.003 0.197993,0 0.252282,-0.0958 0.05429,-0.099 0.05429,-0.55885 0,-0.2427 -0.04471,-0.33851 -0.04471,-0.099 -0.118157,-0.12454 -0.07026,-0.0255 -0.27783,-0.0287 z m 0,1.95438 v 1.44663 q 0.284216,-0.01 0.360859,-0.0894 0.07984,-0.0798 0.07984,-0.3928 v -0.48221 q 0,-0.33211 -0.07026,-0.40237 -0.07026,-0.0703 -0.370439,-0.0798 z"
         id="text43"
         style="font-stretch:condensed;font-size:6.54017px;font-family:Impact;-inkscape-font-specification:'Impact Condensed';fill:#ffffff;stroke-width:0.30657"
         transform="matrix(1.2654276,0,0,0.7902467,0,-8.6631568)"
         aria-label="CLUB" /><path
         d="m 62.835444,126.68776 h 1.359337 q 0,0.38021 0.01009,0.48115 0.01009,0.0976 0.08075,0.16487 0.07402,0.0673 0.198517,0.0673 0.104306,0 0.1716,-0.0639 0.06729,-0.0639 0.07402,-0.16487 0.01009,-0.10094 0.01009,-0.40713 v -0.86809 q -0.100941,0.2187 -0.302822,0.32974 -0.201882,0.10767 -0.50134,0.10767 -0.373482,0 -0.659481,-0.20188 -0.285999,-0.20188 -0.363387,-0.48452 -0.07739,-0.28263 -0.07739,-0.76379 v -0.43404 q 0,-0.572 0.04374,-0.85127 0.04711,-0.27927 0.235529,-0.5148 0.188423,-0.23889 0.521528,-0.37011 0.333105,-0.13123 0.77388,-0.13123 0.545081,0 0.895009,0.15141 0.349929,0.15141 0.541717,0.43741 0.191787,0.28264 0.22207,0.59556 0.03028,0.31291 0.03028,1.21129 v 0.75705 q 0,0.9724 -0.02692,1.30214 -0.02692,0.32638 -0.235528,0.61911 -0.205247,0.29272 -0.55854,0.44077 -0.353293,0.14468 -0.817622,0.14468 -0.575363,0 -0.942115,-0.18506 -0.363387,-0.18505 -0.524893,-0.52152 -0.15814,-0.33647 -0.15814,-0.84791 z m 1.359337,-1.69917 q 0,0.3432 0.08748,0.42395 0.09085,0.0808 0.185059,0.0808 0.141317,0 0.205246,-0.10095 0.06729,-0.1043 0.06729,-0.40376 v -0.98586 q 0,-0.36002 -0.06393,-0.47105 -0.06056,-0.11104 -0.205246,-0.11104 -0.08748,0 -0.181694,0.0875 -0.09421,0.0841 -0.09421,0.46097 z m 3.627144,-2.30145 h 1.05988 q 1.026232,0 1.386255,0.0942 0.363387,0.0942 0.55181,0.30955 0.188423,0.21534 0.235529,0.48115 0.04711,0.26245 0.04711,1.03633 v 1.90778 q 0,0.73351 -0.07066,0.98249 -0.06729,0.24563 -0.238893,0.38694 -0.1716,0.13796 -0.423952,0.19516 -0.252352,0.0538 -0.760422,0.0538 h -1.786654 z m 1.416538,0.93202 v 3.5834 q 0.306187,0 0.376846,-0.12113 0.07066,-0.12449 0.07066,-0.66957 v -2.1164 q 0,-0.37011 -0.02355,-0.47442 -0.02355,-0.10431 -0.10767,-0.15141 -0.08412,-0.0505 -0.316281,-0.0505 z m 2.3923,-0.93202 h 2.362017 v 1.09016 H 73.0473 v 1.03296 h 0.884916 v 1.03633 H 73.0473 v 1.19783 h 1.039692 v 1.09016 h -2.456229 z m 5.810832,0 v 3.6406 q 0,0.81762 -0.01682,1.05315 -0.01682,0.23216 -0.154776,0.42059 -0.134588,0.18842 -0.370117,0.26244 -0.232164,0.0707 -0.703222,0.0707 h -0.709951 v -0.95221 q 0.127859,0.0101 0.185059,0.0101 0.151411,0 0.238893,-0.074 0.08748,-0.074 0.100941,-0.18169 0.01346,-0.10767 0.01346,-0.41722 v -3.83239 z m 3.768461,0 v 3.6406 q 0,0.6191 -0.04038,0.87146 -0.04038,0.24898 -0.238894,0.5148 -0.198517,0.26244 -0.524893,0.40039 -0.323011,0.13459 -0.763786,0.13459 -0.487881,0 -0.861363,-0.1615 -0.373481,-0.16151 -0.558539,-0.42059 -0.185059,-0.25908 -0.218706,-0.54508 -0.03365,-0.28937 -0.03365,-1.21129 v -3.22338 h 1.416538 v 4.08474 q 0,0.35666 0.03701,0.4576 0.04038,0.0976 0.15814,0.0976 0.134588,0 0.1716,-0.10768 0.04038,-0.11103 0.04038,-0.51816 v -4.01408 z m 1.964982,0 v 4.35728 h 0.861363 v 1.09016 h -2.2779 v -5.44744 z m 2.6211,0 v 5.44744 H 84.3796 v -5.44744 z m 3.805473,3.18973 q 0,0.82099 -0.04038,1.16419 -0.03701,0.33983 -0.242258,0.62246 -0.201882,0.28264 -0.548446,0.43405 -0.346564,0.15141 -0.807527,0.15141 -0.437411,0 -0.787339,-0.14132 -0.346564,-0.14468 -0.55854,-0.43068 -0.211976,-0.286 -0.252352,-0.62247 -0.04038,-0.33647 -0.04038,-1.17764 v -0.93202 q 0,-0.82099 0.03701,-1.16082 0.04038,-0.3432 0.242258,-0.62583 0.205247,-0.28264 0.551811,-0.43405 0.346563,-0.15141 0.807527,-0.15141 0.437411,0 0.783974,0.14468 0.349929,0.14132 0.561905,0.42732 0.211976,0.286 0.252352,0.62247 0.04038,0.33647 0.04038,1.17764 z m -1.416537,-1.79002 q 0,-0.38021 -0.04374,-0.48451 -0.04038,-0.10768 -0.1716,-0.10768 -0.111035,0 -0.171599,0.0875 -0.0572,0.0841 -0.0572,0.5047 v 2.54371 q 0,0.47443 0.03701,0.58546 0.04038,0.11104 0.181693,0.11104 0.144682,0 0.185059,-0.12786 0.04038,-0.12786 0.04038,-0.60901 z"
         id="text44"
         style="font-stretch:condensed;font-size:6.8909px;font-family:Impact;-inkscape-font-specification:'Impact Condensed';fill:#ffffff;stroke-width:0.323011"
         transform="matrix(1.3776178,0,0,0.72589075,0,-8.6631568)"
         aria-label="9 DE JULIO" /><path
         d="m 79.495715,109.8474 h 1.119284 q 0.530327,0 0.802153,0.0826 0.274491,0.0826 0.442383,0.33579 0.167893,0.25051 0.167893,0.81015 0,0.37842 -0.119923,0.52766 -0.117259,0.14924 -0.466369,0.22919 0.389085,0.0879 0.527663,0.29314 0.138578,0.20254 0.138578,0.6236 v 0.39975 q 0,0.43705 -0.101269,0.64758 -0.0986,0.21053 -0.31713,0.28782 -0.218527,0.0773 -0.895427,0.0773 h -1.297836 z m 1.121948,0.73819 v 0.95939 q 0.07195,-0.003 0.111929,-0.003 0.165227,0 0.210532,-0.0799 0.0453,-0.0826 0.0453,-0.46637 0,-0.20254 -0.03731,-0.28249 -0.03731,-0.0826 -0.0986,-0.10393 -0.05863,-0.0213 -0.231852,-0.024 z m 0,1.63096 v 1.20723 q 0.237182,-0.008 0.301141,-0.0746 0.06662,-0.0666 0.06662,-0.32779 v -0.40241 q 0,-0.27716 -0.05863,-0.33579 -0.05863,-0.0586 -0.309136,-0.0666 z m 1.892123,-2.36915 h 1.870802 v 0.86345 h -0.748854 v 0.81814 h 0.700885 v 0.82081 h -0.700885 v 0.94872 h 0.823473 v 0.86345 h -1.945421 z m 2.267881,0 h 0.794159 q 0.794158,0 1.073979,0.0613 0.282486,0.0613 0.458373,0.31447 0.178553,0.25051 0.178553,0.80215 0,0.50368 -0.125254,0.6769 -0.125253,0.17323 -0.493017,0.20787 0.33312,0.0826 0.447713,0.22119 0.114593,0.13858 0.141243,0.25584 0.02931,0.11459 0.02931,0.63692 v 1.13794 h -1.042 v -1.43375 q 0,-0.34644 -0.05596,-0.42906 -0.0533,-0.0826 -0.285151,-0.0826 v 1.94542 h -1.121949 z m 1.121949,0.73819 v 0.95939 q 0.189212,0 0.263831,-0.0506 0.07728,-0.0533 0.07728,-0.33845 v -0.23719 q 0,-0.2052 -0.07462,-0.26916 -0.07195,-0.064 -0.266496,-0.064 z m 3.75493,-0.73819 0.642255,4.31457 h -1.148598 l -0.05596,-0.7755 H 88.68983 l -0.06662,0.7755 h -1.161923 l 0.570301,-4.31457 z m -0.594287,2.77422 q -0.08528,-0.73286 -0.170557,-1.8095 -0.170558,1.23654 -0.213197,1.8095 z m 1.42842,-2.77422 h 1.119283 q 0.530328,0 0.802154,0.0826 0.274491,0.0826 0.442383,0.33579 0.167893,0.25051 0.167893,0.81015 0,0.37842 -0.119924,0.52766 -0.117258,0.14924 -0.466368,0.22919 0.389084,0.0879 0.527662,0.29314 0.138578,0.20254 0.138578,0.6236 v 0.39975 q 0,0.43705 -0.101268,0.64758 -0.0986,0.21053 -0.31713,0.28782 -0.218527,0.0773 -0.895427,0.0773 h -1.297836 z m 1.121948,0.73819 v 0.95939 q 0.07195,-0.003 0.111929,-0.003 0.165227,0 0.210532,-0.0799 0.0453,-0.0826 0.0453,-0.46637 0,-0.20254 -0.03731,-0.28249 -0.03731,-0.0826 -0.0986,-0.10393 -0.05863,-0.0213 -0.231852,-0.024 z m 0,1.63096 v 1.20723 q 0.237182,-0.008 0.301141,-0.0746 0.06662,-0.0666 0.06662,-0.32779 v -0.40241 q 0,-0.27716 -0.05863,-0.33579 -0.05863,-0.0586 -0.309136,-0.0666 z m 1.892122,-2.36915 h 1.870803 v 0.86345 h -0.748854 v 0.81814 h 0.700885 v 0.82081 h -0.700885 v 0.94872 h 0.823473 v 0.86345 h -1.945422 z m 4.932843,0 -0.570302,4.31457 h -1.70291 l -0.647586,-4.31457 h 1.183243 q 0.205202,1.78286 0.293146,3.01407 0.08794,-1.24454 0.183882,-2.21192 l 0.07728,-0.80215 z m 2.742248,0 v 2.88349 q 0,0.49035 -0.032,0.69022 -0.032,0.19721 -0.18922,0.40774 -0.15723,0.20787 -0.41573,0.31713 -0.25584,0.1066 -0.604945,0.1066 -0.38642,0 -0.68223,-0.12792 -0.295811,-0.12792 -0.442384,-0.33312 -0.146573,-0.2052 -0.173222,-0.43172 -0.02665,-0.22919 -0.02665,-0.95939 v -2.55303 h 1.121949 v 3.23526 q 0,0.28249 0.02931,0.36244 0.03198,0.0773 0.125253,0.0773 0.106599,0 0.135919,-0.0853 0.032,-0.0879 0.032,-0.4104 v -3.1793 z"
         id="text45"
         style="font-stretch:condensed;font-size:5.45784px;font-family:Impact;-inkscape-font-specification:'Impact Condensed';fill:#ffffff;stroke-width:0.255836"
         transform="matrix(1.1623173,0,0,0.86035028,0,-8.6631568)"
         aria-label="BERABEVU" /><path
         id="rect46"
         style="fill:#ffffff;stroke-width:0.26915"
         d="m 128.35697,92.118404 -4.29844,5.17e-4 v 31.943229 c 0.17918,-0.10951 0.35577,-0.22591 0.52968,-0.34985 v -5.1e-4 h 5.2e-4 c 0.43154,-0.30757 0.84641,-0.66163 1.2423,-1.07074 0.19791,-0.2045 0.39114,-0.42249 0.57929,-0.65577 v -5.2e-4 c 0.18815,-0.23329 0.37151,-0.48137 0.54932,-0.74569 v -5.2e-4 c 0.10866,-0.16151 0.21164,-0.3409 0.31626,-0.5147 0.0667,-0.11075 0.13655,-0.21223 0.20154,-0.32814 0.33392,-0.59547 0.6453,-1.25957 0.93224,-2.00195 v -5.1e-4 -5.2e-4 -5.2e-4 l 5.2e-4,-5.1e-4 v -5.2e-4 -5.2e-4 -5.1e-4 -5.2e-4 c 9.6e-4,-0.004 0.003,-0.008 0.005,-0.0108 v -5.2e-4 z m -46.713943,5.17e-4 -0.0584,26.261409 c 0.0018,0.005 0.004,0.01 0.0057,0.0139 1.120034,2.89802 2.615526,4.6075 4.351155,5.66839 V 92.118921 Z m 9.873816,0 v 33.688859 c 1.707401,0.25681 3.489577,0.42659 5.271512,0.81184 V 92.118921 Z m 10.847397,0 v 36.808569 c 0.90508,0.62881 1.7873,1.40964 2.6355,2.38797 v 5.1e-4 h 5.2e-4 v -0.001 -5.2e-4 c 0.49494,-0.57094 1.00129,-1.07438 1.51722,-1.5198 0.36822,-0.31789 0.74135,-0.60577 1.11828,-0.86765 V 92.118921 h -2.62878 v 0.0067 h -0.015 v -0.0067 z m 10.8474,0 v 34.499659 c 1.78199,-0.38527 3.56353,-0.55507 5.271,-0.81183 V 92.118921 Z m -8.2119,37.389409 h 5.2e-4 c -4e-5,0.24198 4e-5,0.4839 0,0.72554 -6e-5,-0.24164 -4.6e-4,-0.48356 -5.2e-4,-0.72554 z" /></g></g></svg>
